# xmcd
#
# Track frame offsets: 
#        150
#        21410
#        38205
#        50135
#        61207
#        76230
#        88297
#        98405
#        108425
#        123215
#        136145
#        148112
#        162400
#        173059
#        187942
#        197985
#        208772
#        221772
#        233857
#        244282
#        254387
#        264360
#        277382
#        288685
#        304767
#        315525
#
# Disc length: 4390 seconds
#
# Revision: 4
# Processed by: cddbd v1.5.2PL0 Copyright (c) Steve Scherf et al.
# Submitted via: ExactAudioCopy v0.99pb4
#
DISCID=8d11241a
DTITLE=Various Artist - The Roulette Story [CD2]
DYEAR=1998
DGENRE=R&B/Soul
TTITLE0=Count Basie and Joe Williams - Every Day I Have The Blues
TTITLE1=Count Basie - Li'l Darlin'
TTITLE2=Joe Williams - Hallelujah I Love Her So
TTITLE3=Count Basie - M Squad Theme
TTITLE4=Count Basie With Lambert, Hendricks and Ross - Jumpin' At The Wo
TTITLE4=odside
TTITLE5=Woody Herman - Petite Fleur
TTITLE6=Buddy Johnson - A Woman. A Lover, A Friend
TTITLE7=Count Basie and Joe Williams - Shake, Rattle And Roll
TTITLE8=Billy Eckstine - I Apologise
TTITLE9=Sarah Vaughan, Joe Williams, Count Basie - Teach Me Tonight
TTITLE10=Sarah Vaughn - Serenata
TTITLE11=Maynard Ferguson - Christmas For Moderns Part 1
TTITLE12=Johnny Dankworth - African Waltz
TTITLE13=Louis Armstron and Duke Ellington - Duke's Place
TTITLE14=Machito - Twist Changa
TTITLE15=Count Basie - The Basie Twist
TTITLE16=Irene Reid and Count Basie - Alexander's Ragtime Band
TTITLE17=Sarah Vaughan - Mama (He Treats Your Daughter Mean)
TTITLE18=Dinah Washington - Soulville
TTITLE19=Tito Puente - Get Me To The Church On Time
TTITLE20=Dinah Washington - Where Are You?
TTITLE21=Sarah Vaughan - A Taste Of Honey
TTITLE22=Sonny Stitt - Morgan's Song
TTITLE23=Dinah Washington - That Sunday (That Summer)
TTITLE24=John Handy Quartet - Blues For M.F. Part 1
TTITLE25=Bill Doggett - Ko Ko
EXTD=YEAR: 1998
EXTT0=
EXTT1=
EXTT2=
EXTT3=
EXTT4=
EXTT5=
EXTT6=
EXTT7=
EXTT8=
EXTT9=
EXTT10=
EXTT11=
EXTT12=
EXTT13=
EXTT14=
EXTT15=
EXTT16=
EXTT17=
EXTT18=
EXTT19=
EXTT20=
EXTT21=
EXTT22=
EXTT23=
EXTT24=
EXTT25=
PLAYORDER=
